<svg xmlns="http://www.w3.org/2000/svg" viewBox="0 0 283.96 152.33"><defs><style>.cls-1{isolation:isolate;}.cls-2{mix-blend-mode:multiply;}.cls-3{fill:#ffca24;}</style></defs><title>Ресурс 6</title><g class="cls-1"><g id="Слой_2" data-name="Слой 2"><g id="Layer_1" data-name="Layer 1"><g id="Процесс"><g class="cls-2"><path class="cls-3" d="M11.34,51.87a4.34,4.34,0,1,0,4.34,4.34A4.35,4.35,0,0,0,11.34,51.87Z"/><path class="cls-3" d="M11.34,31.42a4.34,4.34,0,1,0,4.34,4.34A4.35,4.35,0,0,0,11.34,31.42Z"/><path class="cls-3" d="M11.34,72.33a4.34,4.34,0,1,0,4.34,4.34A4.35,4.35,0,0,0,11.34,72.33Z"/><path class="cls-3" d="M11.34,113.25a4.34,4.34,0,1,0,4.34,4.34A4.35,4.35,0,0,0,11.34,113.25Z"/><path class="cls-3" d="M11.34,92.79a4.34,4.34,0,1,0,4.34,4.34A4.35,4.35,0,0,0,11.34,92.79Z"/><path class="cls-3" d="M15.36,136.4a5,5,0,0,0-.39-.76,5,5,0,0,0-.54-.65,4.47,4.47,0,0,0-6.14,0,3.74,3.74,0,0,0-.54.65,5,5,0,0,0-.39.76,5.91,5.91,0,0,0-.26.8,5.72,5.72,0,0,0-.09.87,4.36,4.36,0,0,0,7.42,3.06,5.39,5.39,0,0,0,.54-.67,3.88,3.88,0,0,0,.39-.74,5.08,5.08,0,0,0,.26-.8,5.69,5.69,0,0,0,.06-.85,3.76,3.76,0,0,0-.09-.87A3.72,3.72,0,0,0,15.36,136.4Z"/><path class="cls-3" d="M30.35,133.71A4.34,4.34,0,1,0,34.71,138,4.35,4.35,0,0,0,30.35,133.71Z"/><path class="cls-3" d="M125.39,133.71a4.34,4.34,0,1,0,4.34,4.34A4.35,4.35,0,0,0,125.39,133.71Z"/><path class="cls-3" d="M106.39,133.71a4.34,4.34,0,1,0,4.34,4.34A4.35,4.35,0,0,0,106.39,133.71Z"/><path class="cls-3" d="M87.38,133.71A4.34,4.34,0,1,0,91.72,138,4.34,4.34,0,0,0,87.38,133.71Z"/><path class="cls-3" d="M144.42,133.71a4.34,4.34,0,1,0,4.34,4.34A4.34,4.34,0,0,0,144.42,133.71Z"/><path class="cls-3" d="M164.39,133.71a4.34,4.34,0,1,0,4.34,4.34A4.35,4.35,0,0,0,164.39,133.71Z"/><path class="cls-3" d="M183.42,133.71a4.34,4.34,0,1,0,4.34,4.34A4.34,4.34,0,0,0,183.42,133.71Z"/><path class="cls-3" d="M204.42,133.71a4.34,4.34,0,1,0,4.34,4.34A4.34,4.34,0,0,0,204.42,133.71Z"/><path class="cls-3" d="M224.39,133.71a4.34,4.34,0,1,0,4.34,4.34A4.35,4.35,0,0,0,224.39,133.71Z"/><path class="cls-3" d="M243.42,133.71a4.34,4.34,0,1,0,4.34,4.34A4.34,4.34,0,0,0,243.42,133.71Z"/><path class="cls-3" d="M68.38,133.71A4.34,4.34,0,1,0,72.72,138,4.34,4.34,0,0,0,68.38,133.71Z"/><path class="cls-3" d="M49.37,133.71A4.34,4.34,0,1,0,53.71,138,4.34,4.34,0,0,0,49.37,133.71Z"/><path class="cls-3" d="M284,138.05l-24.73-14.28V137c0,.07-.06.15-.07.22a3.76,3.76,0,0,0-.09.87,4.41,4.41,0,0,0,.15,1.09v13.17Z"/><circle class="cls-3" cx="11.35" cy="11.35" r="11.35"/></g></g></g></g></g></svg>