<svg xmlns="http://www.w3.org/2000/svg" viewBox="0 0 201.85 33.48"><defs><style>.cls-1{opacity:0.28;}.cls-2{fill:#f8ad3b;}.cls-3{fill:#fff;}</style></defs><title>Ресурс 5</title><g id="Слой_2" data-name="Слой 2"><g id="Layer_1" data-name="Layer 1"><g id="Главная"><g class="cls-1"><path class="cls-2" d="M2.45,26v-15H0V8.53H2.45V7.7c0-2.45.54-4.68,2-6.08A6.06,6.06,0,0,1,8.71,0a7.34,7.34,0,0,1,2.7.5L11,3a4.72,4.72,0,0,0-2-.4c-2.7,0-3.38,2.38-3.38,5v.94H9.79v2.41H5.58V26Z"/><path class="cls-2" d="M27.93,17.1c0,6.44-4.46,9.25-8.67,9.25-4.72,0-8.35-3.46-8.35-9,0-5.83,3.82-9.25,8.64-9.25C24.55,8.13,27.93,11.77,27.93,17.1Zm-13.82.18c0,3.81,2.2,6.69,5.29,6.69s5.29-2.84,5.29-6.77c0-3-1.48-6.7-5.22-6.7S14.11,14,14.11,17.28Z"/><path class="cls-2" d="M31.93,14c0-2.05,0-3.82-.14-5.44h2.77L34.67,12h.14a5.23,5.23,0,0,1,4.82-3.82,3.41,3.41,0,0,1,.9.11v3a4.8,4.8,0,0,0-1.08-.11c-2.23,0-3.82,1.69-4.25,4.07a8.88,8.88,0,0,0-.14,1.48V26H31.93Z"/><path class="cls-3" d="M51.44,26V1.69h3.42L62.64,14A68.78,68.78,0,0,1,67,21.85l.07,0c-.29-3.24-.36-6.19-.36-10V1.69h3V26H66.49l-7.7-12.31a77,77,0,0,1-4.54-8.1l-.11,0c.18,3.06.25,6,.25,10V26Z"/><path class="cls-2" d="M86.18,3.64a2,2,0,0,1-3.92,0,1.93,1.93,0,0,1,2-2A1.88,1.88,0,0,1,86.18,3.64ZM82.66,26V8.53h3.17V26Z"/><path class="cls-2" d="M91.08,13.25c0-1.8,0-3.28-.14-4.72h2.81l.18,2.88H94a6.41,6.41,0,0,1,5.76-3.28c2.41,0,6.16,1.44,6.16,7.42V26h-3.17v-10c0-2.81-1-5.15-4-5.15a4.65,4.65,0,0,0-4.46,4.71V26H91.08Z"/><path class="cls-3" d="M118.69,14c0-2.05,0-3.82-.14-5.44h2.77l.11,3.42h.14a5.23,5.23,0,0,1,4.82-3.82,3.41,3.41,0,0,1,.9.11v3a4.8,4.8,0,0,0-1.08-.11c-2.23,0-3.82,1.69-4.25,4.07a8.88,8.88,0,0,0-.14,1.48V26h-3.13Z"/><path class="cls-3" d="M139.93,26l-.25-2.2h-.11a6.49,6.49,0,0,1-5.33,2.59,5,5,0,0,1-5.33-5c0-4.21,3.74-6.51,10.47-6.48v-.36c0-1.44-.4-4-4-4a8.68,8.68,0,0,0-4.54,1.3l-.72-2.09a10.82,10.82,0,0,1,5.72-1.55c5.33,0,6.62,3.64,6.62,7.13v6.51a24.53,24.53,0,0,0,.29,4.17Zm-.47-8.89c-3.46-.07-7.38.54-7.38,3.92a2.8,2.8,0,0,0,3,3,4.33,4.33,0,0,0,4.21-2.92,3.32,3.32,0,0,0,.18-1Z"/><path class="cls-3" d="M147.63,13.25c0-1.8,0-3.28-.14-4.72h2.81l.18,2.88h.07a6.41,6.41,0,0,1,5.76-3.28c2.41,0,6.16,1.44,6.16,7.42V26H159.3v-10c0-2.81-1-5.15-4-5.15a4.65,4.65,0,0,0-4.46,4.71V26h-3.17Z"/><path class="cls-3" d="M182.62,8.53c-.07,1.26-.14,2.66-.14,4.79V23.43c0,4-.79,6.44-2.48,8a9.23,9.23,0,0,1-6.33,2.09A11.24,11.24,0,0,1,167.87,32l.79-2.41A9.81,9.81,0,0,0,173.77,31c3.24,0,5.62-1.69,5.62-6.08V23h-.07a6.22,6.22,0,0,1-5.54,2.92c-4.32,0-7.42-3.67-7.42-8.5,0-5.9,3.85-9.25,7.85-9.25a5.79,5.79,0,0,1,5.44,3h.07l.14-2.63Zm-3.28,6.88a4.63,4.63,0,0,0-4.61-4.79c-3,0-5.18,2.56-5.18,6.59,0,3.42,1.73,6.26,5.15,6.26a4.63,4.63,0,0,0,4.39-3.24,5.52,5.52,0,0,0,.25-1.69Z"/><path class="cls-3" d="M189.5,17.82c.07,4.28,2.81,6,6,6a11.46,11.46,0,0,0,4.82-.9l.54,2.27a14.12,14.12,0,0,1-5.8,1.08c-5.36,0-8.57-3.53-8.57-8.78s3.1-9.4,8.17-9.4c5.69,0,7.2,5,7.2,8.21a11.91,11.91,0,0,1-.11,1.48Zm9.29-2.27c0-2-.83-5.15-4.39-5.15-3.2,0-4.61,3-4.86,5.15Z"/></g></g></g></g></svg>