<svg xmlns="http://www.w3.org/2000/svg" viewBox="0 0 88.38 32.11"><defs><style>.cls-1{opacity:0.34;}.cls-2{fill:#fff;}</style></defs><title>Ресурс 4</title><g id="Слой_2" data-name="Слой 2"><g id="Layer_1" data-name="Layer 1"><g id="Главная"><g class="cls-1"><path class="cls-2" d="M7.2,0A23.74,23.74,0,0,0,2.66,14.72,24.26,24.26,0,0,0,7.2,29.34H4.72A23.26,23.26,0,0,1,0,14.72,23.76,23.76,0,0,1,4.72,0Z"/><path class="cls-2" d="M10.55,13.25c0-2.23-.07-4-.14-5.69h2.84l.14,3h.07a6.85,6.85,0,0,1,6.19-3.38C23.87,7.16,27,10.73,27,16c0,6.26-3.82,9.36-7.92,9.36a6.11,6.11,0,0,1-5.36-2.74h-.07v9.47H10.55Zm3.13,4.64a7.11,7.11,0,0,0,.14,1.3,4.89,4.89,0,0,0,4.75,3.71c3.35,0,5.29-2.74,5.29-6.73,0-3.49-1.84-6.48-5.18-6.48a5.05,5.05,0,0,0-4.79,3.92,5.12,5.12,0,0,0-.22,1.3Z"/><path class="cls-2" d="M31,13c0-2.05,0-3.82-.14-5.44h2.77L33.77,11h.14a5.23,5.23,0,0,1,4.82-3.82,3.44,3.44,0,0,1,.9.11v3a4.77,4.77,0,0,0-1.08-.11c-2.23,0-3.82,1.69-4.25,4.07a8.89,8.89,0,0,0-.14,1.48V25H31Z"/><path class="cls-2" d="M46.47,2.66a2,2,0,0,1-3.92,0,1.93,1.93,0,0,1,2-2A1.88,1.88,0,0,1,46.47,2.66ZM42.95,25V7.56h3.17V25Z"/><path class="cls-2" d="M51.37,12.27c0-1.8,0-3.28-.14-4.72H54l.18,2.88h.07A6.41,6.41,0,0,1,60,7.16c2.41,0,6.16,1.44,6.16,7.42V25H63v-10c0-2.81-1-5.15-4-5.15a4.65,4.65,0,0,0-4.46,4.72V25H51.37Z"/><path class="cls-2" d="M75,2.56v5h4.54V10H75v9.4c0,2.16.61,3.38,2.38,3.38a7,7,0,0,0,1.83-.22l.14,2.38a7.76,7.76,0,0,1-2.81.43A4.39,4.39,0,0,1,73.15,24c-.9-.94-1.22-2.48-1.22-4.54V10h-2.7V7.56h2.7V3.38Z"/><path class="cls-2" d="M81.21,29.34a24.36,24.36,0,0,0,4.54-14.72A23.86,23.86,0,0,0,81.21,0h2.45a22.93,22.93,0,0,1,4.71,14.65,23.36,23.36,0,0,1-4.71,14.69Z"/></g></g></g></g></svg>